<mxfile host="app.diagrams.net" modified="2023-02-13T03:09:32.757Z" agent="5.0 (Macintosh; Intel Mac OS X 10_15_7) AppleWebKit/537.36 (KHTML, like Gecko) Chrome/105.0.0.0 Safari/537.36" etag="ZZ_JxsRvx0idXlccGKQZ" version="20.8.20" type="github">
  <diagram id="raZKpyhwilZSGGpxjZMO" name="第 1 页">
    <mxGraphModel dx="1194" dy="309" grid="1" gridSize="10" guides="1" tooltips="1" connect="1" arrows="1" fold="1" page="0" pageScale="1" pageWidth="827" pageHeight="1169" math="0" shadow="0">
      <root>
        <mxCell id="0" />
        <mxCell id="1" parent="0" />
        <mxCell id="t4GL8QBkgqgvGyavuppa-11" value="" style="rounded=0;whiteSpace=wrap;html=1;fillColor=#f5f5f5;fontColor=#333333;strokeColor=#666666;" parent="1" vertex="1">
          <mxGeometry x="409" y="816" width="771" height="408" as="geometry" />
        </mxCell>
        <mxCell id="L_LvXFgoSKImoAr_1Arw-1" value="" style="rounded=0;whiteSpace=wrap;html=1;fillColor=#FFFFFF;dashed=1;strokeColor=#CC6600;" parent="1" vertex="1">
          <mxGeometry x="655" y="420" width="420" height="339" as="geometry" />
        </mxCell>
        <mxCell id="L_LvXFgoSKImoAr_1Arw-2" value="topic" style="rounded=1;whiteSpace=wrap;html=1;strokeColor=#006EAF;fontColor=#ffffff;fillColor=#5b9bd5;" parent="1" vertex="1">
          <mxGeometry x="490" y="549" width="120" height="61" as="geometry" />
        </mxCell>
        <mxCell id="L_LvXFgoSKImoAr_1Arw-3" value="" style="endArrow=classic;html=1;strokeColor=#5b9bd5;exitX=1;exitY=0.663;exitDx=0;exitDy=0;exitPerimeter=0;entryX=0;entryY=0.25;entryDx=0;entryDy=0;" parent="1" source="L_LvXFgoSKImoAr_1Arw-4" target="L_LvXFgoSKImoAr_1Arw-2" edge="1">
          <mxGeometry width="50" height="50" relative="1" as="geometry">
            <mxPoint x="367" y="562" as="sourcePoint" />
            <mxPoint x="482" y="562" as="targetPoint" />
          </mxGeometry>
        </mxCell>
        <mxCell id="L_LvXFgoSKImoAr_1Arw-4" value="&lt;font color=&quot;#ffffff&quot;&gt;Svr producer&lt;/font&gt;" style="ellipse;whiteSpace=wrap;html=1;fillColor=#5b9bd5;strokeColor=none;" parent="1" vertex="1">
          <mxGeometry x="267" y="468" width="98" height="66" as="geometry" />
        </mxCell>
        <mxCell id="L_LvXFgoSKImoAr_1Arw-5" value="&lt;font style=&quot;font-size: 14px&quot; color=&quot;#808080&quot;&gt;人群包&lt;br&gt;&lt;div style=&quot;text-align: justify&quot;&gt;&lt;span&gt;周期&lt;/span&gt;&lt;/div&gt;纪念日&lt;br&gt;&lt;div style=&quot;text-align: justify&quot;&gt;&lt;span&gt;等&lt;/span&gt;&lt;/div&gt;&lt;/font&gt;" style="text;html=1;strokeColor=none;fillColor=none;align=center;verticalAlign=middle;whiteSpace=wrap;rounded=0;" parent="1" vertex="1">
          <mxGeometry x="361" y="441" width="110" height="93" as="geometry" />
        </mxCell>
        <mxCell id="L_LvXFgoSKImoAr_1Arw-6" value="&lt;font color=&quot;#ffffff&quot;&gt;consumer group&lt;/font&gt;" style="ellipse;whiteSpace=wrap;html=1;fillColor=#5b9bd5;strokeColor=none;" parent="1" vertex="1">
          <mxGeometry x="695" y="546.5" width="113" height="69" as="geometry" />
        </mxCell>
        <mxCell id="L_LvXFgoSKImoAr_1Arw-7" value="&lt;font color=&quot;#ffffff&quot;&gt;Svr producer&lt;/font&gt;" style="ellipse;whiteSpace=wrap;html=1;fillColor=#5b9bd5;strokeColor=none;" parent="1" vertex="1">
          <mxGeometry x="267" y="546.5" width="98" height="66" as="geometry" />
        </mxCell>
        <mxCell id="L_LvXFgoSKImoAr_1Arw-8" value="" style="endArrow=classic;html=1;strokeColor=#5b9bd5;exitX=1;exitY=0.5;exitDx=0;exitDy=0;entryX=0;entryY=0.5;entryDx=0;entryDy=0;" parent="1" source="L_LvXFgoSKImoAr_1Arw-7" target="L_LvXFgoSKImoAr_1Arw-2" edge="1">
          <mxGeometry width="50" height="50" relative="1" as="geometry">
            <mxPoint x="371" y="552.758" as="sourcePoint" />
            <mxPoint x="492" y="572" as="targetPoint" />
            <Array as="points">
              <mxPoint x="472" y="580" />
            </Array>
          </mxGeometry>
        </mxCell>
        <mxCell id="L_LvXFgoSKImoAr_1Arw-9" value="&lt;font color=&quot;#ffffff&quot;&gt;Svr producer&lt;/font&gt;" style="ellipse;whiteSpace=wrap;html=1;fillColor=#5b9bd5;strokeColor=none;" parent="1" vertex="1">
          <mxGeometry x="274" y="653" width="98" height="66" as="geometry" />
        </mxCell>
        <mxCell id="L_LvXFgoSKImoAr_1Arw-10" value="" style="endArrow=classic;html=1;strokeColor=#5b9bd5;" parent="1" edge="1">
          <mxGeometry width="50" height="50" relative="1" as="geometry">
            <mxPoint x="375" y="675" as="sourcePoint" />
            <mxPoint x="485" y="588" as="targetPoint" />
          </mxGeometry>
        </mxCell>
        <mxCell id="L_LvXFgoSKImoAr_1Arw-11" value="" style="endArrow=classic;html=1;strokeColor=#5b9bd5;exitX=0;exitY=0.5;exitDx=0;exitDy=0;entryX=1;entryY=0.5;entryDx=0;entryDy=0;" parent="1" source="L_LvXFgoSKImoAr_1Arw-6" target="L_LvXFgoSKImoAr_1Arw-2" edge="1">
          <mxGeometry width="50" height="50" relative="1" as="geometry">
            <mxPoint x="375" y="521.758" as="sourcePoint" />
            <mxPoint x="500" y="574.25" as="targetPoint" />
          </mxGeometry>
        </mxCell>
        <mxCell id="L_LvXFgoSKImoAr_1Arw-12" value="springboot 应用" style="rounded=1;whiteSpace=wrap;html=1;strokeColor=#006EAF;fontColor=#ffffff;fillColor=#5b9bd5;" parent="1" vertex="1">
          <mxGeometry x="838" y="485" width="108" height="45.5" as="geometry" />
        </mxCell>
        <mxCell id="L_LvXFgoSKImoAr_1Arw-13" value="springboot 应用" style="rounded=1;whiteSpace=wrap;html=1;strokeColor=#006EAF;fontColor=#ffffff;fillColor=#5b9bd5;" parent="1" vertex="1">
          <mxGeometry x="840" y="561" width="108" height="45.5" as="geometry" />
        </mxCell>
        <mxCell id="L_LvXFgoSKImoAr_1Arw-14" value="springboot 应用" style="rounded=1;whiteSpace=wrap;html=1;strokeColor=#006EAF;fontColor=#ffffff;fillColor=#5b9bd5;" parent="1" vertex="1">
          <mxGeometry x="840" y="637" width="108" height="45.5" as="geometry" />
        </mxCell>
        <mxCell id="t4GL8QBkgqgvGyavuppa-1" value="" style="rounded=1;whiteSpace=wrap;html=1;fillColor=#ffe6cc;strokeColor=#d79b00;" parent="1" vertex="1">
          <mxGeometry x="463" y="905" width="329" height="200" as="geometry" />
        </mxCell>
        <mxCell id="t4GL8QBkgqgvGyavuppa-4" value="" style="rounded=1;whiteSpace=wrap;html=1;fillColor=#d5e8d4;strokeColor=#82b366;" parent="1" vertex="1">
          <mxGeometry x="564" y="983" width="141" height="75" as="geometry" />
        </mxCell>
        <mxCell id="t4GL8QBkgqgvGyavuppa-6" value="frm&lt;br&gt;(UDF等)" style="text;html=1;strokeColor=none;fillColor=none;align=center;verticalAlign=middle;whiteSpace=wrap;rounded=0;" parent="1" vertex="1">
          <mxGeometry x="590" y="998" width="82.5" height="45" as="geometry" />
        </mxCell>
        <mxCell id="t4GL8QBkgqgvGyavuppa-10" value="工单" style="text;html=1;strokeColor=none;fillColor=none;align=center;verticalAlign=middle;whiteSpace=wrap;rounded=0;" parent="1" vertex="1">
          <mxGeometry x="490" y="922" width="60" height="30" as="geometry" />
        </mxCell>
        <mxCell id="t4GL8QBkgqgvGyavuppa-12" value="工作流服务" style="rounded=1;whiteSpace=wrap;html=1;fillColor=#ffe6cc;strokeColor=#d79b00;" parent="1" vertex="1">
          <mxGeometry x="946" y="922" width="175" height="43" as="geometry" />
        </mxCell>
        <mxCell id="t4GL8QBkgqgvGyavuppa-13" value="短信服务" style="rounded=1;whiteSpace=wrap;html=1;fillColor=#ffe6cc;strokeColor=#d79b00;" parent="1" vertex="1">
          <mxGeometry x="946" y="985" width="175" height="40" as="geometry" />
        </mxCell>
        <mxCell id="t4GL8QBkgqgvGyavuppa-14" value="微服务" style="text;html=1;strokeColor=none;fillColor=none;align=center;verticalAlign=middle;whiteSpace=wrap;rounded=0;" parent="1" vertex="1">
          <mxGeometry x="468" y="832" width="60" height="30" as="geometry" />
        </mxCell>
        <mxCell id="uNWxfV7Tc-PzDn29VgnT-2" value="" style="shape=flexArrow;endArrow=classic;startArrow=classic;html=1;rounded=0;entryX=0;entryY=0.5;entryDx=0;entryDy=0;fillColor=#f9f7ed;strokeColor=#36393d;exitX=1.006;exitY=0.186;exitDx=0;exitDy=0;exitPerimeter=0;" parent="1" source="t4GL8QBkgqgvGyavuppa-1" target="t4GL8QBkgqgvGyavuppa-12" edge="1">
          <mxGeometry width="100" height="100" relative="1" as="geometry">
            <mxPoint x="792" y="962" as="sourcePoint" />
            <mxPoint x="892" y="862" as="targetPoint" />
          </mxGeometry>
        </mxCell>
        <mxCell id="uNWxfV7Tc-PzDn29VgnT-4" value="" style="shape=flexArrow;endArrow=classic;startArrow=classic;html=1;rounded=0;entryX=0;entryY=0.5;entryDx=0;entryDy=0;fillColor=#f9f7ed;strokeColor=#36393d;" parent="1" edge="1">
          <mxGeometry width="100" height="100" relative="1" as="geometry">
            <mxPoint x="794" y="1005" as="sourcePoint" />
            <mxPoint x="948" y="1004.5" as="targetPoint" />
          </mxGeometry>
        </mxCell>
        <mxCell id="uNWxfV7Tc-PzDn29VgnT-6" value="Meta Server" style="rounded=1;whiteSpace=wrap;html=1;fillColor=#a0522d;strokeColor=#6D1F00;fontColor=#ffffff;" parent="1" vertex="1">
          <mxGeometry x="946" y="1058" width="175" height="40" as="geometry" />
        </mxCell>
        <mxCell id="uNWxfV7Tc-PzDn29VgnT-7" value="" style="shape=flexArrow;endArrow=classic;startArrow=classic;html=1;rounded=0;fillColor=#fad7ac;strokeColor=#b46504;" parent="1" source="t4GL8QBkgqgvGyavuppa-4" target="uNWxfV7Tc-PzDn29VgnT-6" edge="1">
          <mxGeometry width="100" height="100" relative="1" as="geometry">
            <mxPoint x="877" y="1200" as="sourcePoint" />
            <mxPoint x="977" y="1100" as="targetPoint" />
          </mxGeometry>
        </mxCell>
        <mxCell id="sBbYeo1OwItME8NHBHeK-1" value="" style="shape=cube;whiteSpace=wrap;html=1;boundedLbl=1;backgroundOutline=1;darkOpacity=0.05;darkOpacity2=0.1;" vertex="1" parent="1">
          <mxGeometry x="610" y="1540" width="120" height="80" as="geometry" />
        </mxCell>
      </root>
    </mxGraphModel>
  </diagram>
</mxfile>
